<svg width="19" height="18" viewBox="0 0 19 18" fill="none" xmlns="http://www.w3.org/2000/svg">
<g clip-path="url(#clip0_12318_24537)">
<path d="M5 7.48324H8.1875L7.83333 8.8999H5V15.2749H3.58333V8.8999H0.75V7.48324H3.58333V6.15157C3.58333 5.55657 3.61167 5.09379 3.66833 4.76324C3.725 4.48935 3.81944 4.2249 3.95167 3.9699C4.20667 3.50712 4.56556 3.15296 5.02833 2.9074C5.27389 2.76574 5.53833 2.67129 5.82167 2.62407C6.15222 2.55796 6.615 2.5249 7.21 2.5249C7.57833 2.5249 7.89944 2.55796 8.17333 2.62407V3.94157H7.21C6.75667 3.94157 6.42847 3.95574 6.22542 3.98407C6.02236 4.0124 5.84528 4.06907 5.69417 4.15407C5.47694 4.2674 5.31167 4.42796 5.19833 4.63574C5.12278 4.78685 5.07083 4.96393 5.0425 5.16699C5.01417 5.37004 4.99528 5.69824 4.98583 6.15157V7.48324H5Z" fill="black"/>
</g>
<defs>
<clipPath id="clip0_12318_24537">
<rect width="17.48" height="17" fill="white" transform="matrix(1 0 0 -1 0.75 17.3999)"/>
</clipPath>
</defs>
</svg>
