<svg width="21" height="25" viewBox="0 0 21 25" fill="none" xmlns="http://www.w3.org/2000/svg">
<path d="M5.32078 11.8057C5.7112 12.4973 6.18806 13.1248 6.75137 13.6881C7.31468 14.2514 7.94213 14.7283 8.63373 15.1187L9.36993 14.0813C9.49264 13.9028 9.65717 13.7913 9.86353 13.7466C10.0699 13.702 10.2679 13.7299 10.4575 13.8303C11.6511 14.4884 12.9283 14.8677 14.2892 14.9681C14.5011 14.9904 14.6824 15.0796 14.8329 15.2358C14.9835 15.392 15.0588 15.5816 15.0588 15.8047V19.5359C15.0588 19.7479 14.9863 19.9347 14.8413 20.0964C14.6963 20.2582 14.5178 20.3502 14.3059 20.3725C13.8597 20.4171 13.4135 20.4395 12.9673 20.4395C11.2049 20.4395 9.52052 20.0992 7.91425 19.4188C6.36375 18.7607 4.99172 17.8348 3.79817 16.6413C2.60462 15.4477 1.67878 14.0757 1.02065 12.5252C0.340218 10.9189 0 9.23457 0 7.47213C0 7.02595 0.0223094 6.57976 0.0669281 6.13357C0.0892375 5.92163 0.181264 5.74316 0.343007 5.59815C0.504749 5.45314 0.69159 5.38063 0.903529 5.38063H4.63477C4.85786 5.38063 5.04749 5.45592 5.20366 5.60651C5.35983 5.7571 5.44906 5.93836 5.47137 6.1503C5.57176 7.51117 5.95102 8.78839 6.60915 9.98194C6.70954 10.1716 6.73743 10.3696 6.69281 10.5759C6.64819 10.7823 6.53664 10.9468 6.35817 11.0695L5.32078 11.8057ZM3.21255 11.2536L4.80209 10.1158C4.3559 9.14534 4.04915 8.12468 3.88183 7.05383H1.6732V7.47213C1.6732 9.00033 1.9688 10.4672 2.56 11.8727C3.12889 13.2224 3.93481 14.4187 4.97778 15.4617C6.02074 16.5046 7.21708 17.3106 8.5668 17.8795C9.97229 18.4707 11.4391 18.7663 12.9673 18.7663H13.3856V16.5576C12.3148 16.3903 11.2941 16.0835 10.3237 15.6374L9.18588 17.2269C8.72854 17.0484 8.28235 16.8365 7.84732 16.5911L7.79712 16.5744C6.98283 16.1059 6.24105 15.537 5.57176 14.8677C4.90248 14.1984 4.33359 13.4566 3.8651 12.6423L3.84837 12.5921C3.60296 12.1571 3.39102 11.7109 3.21255 11.2536Z" fill="#F53E32"/>
</svg>
