<svg width="19" height="18" viewBox="0 0 19 18" fill="none" xmlns="http://www.w3.org/2000/svg">
<g clip-path="url(#clip0_12318_24543)">
<path d="M13.4858 8.60256C13.4575 8.02645 13.3489 7.47868 13.16 6.95923C12.9711 6.43979 12.7114 5.95812 12.3808 5.51423C12.1919 5.71256 11.9747 5.92034 11.7292 6.13756C11.0492 6.70423 10.2653 7.17645 9.3775 7.55423C9.50028 7.80923 9.60889 8.04534 9.70333 8.26256L9.77417 8.4609C10.7847 8.34756 11.885 8.37118 13.075 8.53173L13.4858 8.60256ZM6.84167 3.3184C6.97389 3.49784 7.11083 3.69618 7.2525 3.9134C7.71528 4.58395 8.13556 5.25451 8.51333 5.92507L8.75417 6.35007C9.58528 6.01951 10.3031 5.59923 10.9075 5.08923C11.1247 4.90979 11.3136 4.73034 11.4742 4.5509C10.9736 4.13534 10.4164 3.81423 9.8025 3.58756C9.16972 3.35145 8.51333 3.2334 7.83333 3.2334C7.50278 3.2334 7.17222 3.26173 6.84167 3.3184ZM2.35083 7.4834C2.79472 7.47395 3.27639 7.44562 3.79583 7.3984C4.99528 7.28506 6.14278 7.09145 7.23833 6.81756C6.84167 6.11868 6.4025 5.41034 5.92083 4.69256C5.71306 4.3809 5.51472 4.08812 5.32583 3.81423C4.58917 4.18256 3.95875 4.68548 3.43458 5.32298C2.91042 5.96048 2.54917 6.68062 2.35083 7.4834ZM3.4275 12.4701C3.73917 12.0167 4.11222 11.5681 4.54667 11.1242C5.64222 10.0003 6.86056 9.22118 8.20167 8.78673L8.24417 8.77256C8.12139 8.51756 8.00806 8.28618 7.90417 8.0784C6.6575 8.43729 5.31167 8.68284 3.86667 8.81506C3.25278 8.87173 2.68611 8.90006 2.16667 8.90006C2.16667 9.57062 2.28 10.2128 2.50667 10.8267C2.72389 11.4217 3.03083 11.9695 3.4275 12.4701ZM9.95833 14.1559C9.88278 13.7403 9.78361 13.3059 9.66083 12.8526C9.42472 11.9081 9.14139 10.992 8.81083 10.1042C7.45083 10.5953 6.30806 11.3178 5.3825 12.2717C4.99528 12.6684 4.68361 13.0603 4.4475 13.4476C4.92917 13.8065 5.45806 14.0827 6.03417 14.2763C6.61028 14.4699 7.21 14.5667 7.83333 14.5667C8.57 14.5667 9.27833 14.4298 9.95833 14.1559ZM11.29 13.3909C11.8378 12.9659 12.2958 12.4583 12.6642 11.868C13.0325 11.2777 13.2781 10.6378 13.4008 9.9484C13.1269 9.87284 12.8342 9.81618 12.5225 9.7784C11.7386 9.66506 10.9878 9.65562 10.27 9.75006C10.5817 10.619 10.8461 11.502 11.0633 12.3992C11.1483 12.7487 11.2239 13.0792 11.29 13.3909ZM7.83333 15.9834C6.87 15.9834 5.94917 15.7992 5.07083 15.4309C4.23028 15.072 3.48181 14.5644 2.82542 13.908C2.16903 13.2516 1.66139 12.5031 1.3025 11.6626C0.934167 10.7842 0.75 9.8634 0.75 8.90006C0.75 7.93673 0.934167 7.0159 1.3025 6.13756C1.66139 5.29701 2.16903 4.54854 2.82542 3.89215C3.48181 3.23576 4.23028 2.72812 5.07083 2.36923C5.94917 2.0009 6.87 1.81673 7.83333 1.81673C8.79667 1.81673 9.7175 2.0009 10.5958 2.36923C11.4364 2.72812 12.1849 3.23576 12.8413 3.89215C13.4976 4.54854 14.0053 5.29701 14.3642 6.13756C14.7325 7.0159 14.9167 7.93673 14.9167 8.90006C14.9167 9.8634 14.7325 10.7842 14.3642 11.6626C14.0053 12.5031 13.4976 13.2516 12.8413 13.908C12.1849 14.5644 11.4364 15.072 10.5958 15.4309C9.7175 15.7992 8.79667 15.9834 7.83333 15.9834Z" fill="black"/>
</g>
<defs>
<clipPath id="clip0_12318_24543">
<rect width="17.48" height="17" fill="white" transform="matrix(1 0 0 -1 0.75 17.3999)"/>
</clipPath>
</defs>
</svg>
