<svg width="15" height="15" viewBox="0 0 15 15" fill="none" xmlns="http://www.w3.org/2000/svg">
<path d="M7.83333 5.77506C7.44611 5.77506 7.08958 5.86951 6.76375 6.0584C6.43792 6.24729 6.18056 6.50465 5.99167 6.83048C5.80278 7.15631 5.70833 7.51284 5.70833 7.90006C5.70833 8.28729 5.80278 8.64382 5.99167 8.96965C6.18056 9.29548 6.43792 9.55284 6.76375 9.74173C7.08958 9.93062 7.44611 10.0251 7.83333 10.0251C8.22056 10.0251 8.57708 9.93062 8.90292 9.74173C9.22875 9.55284 9.48611 9.29548 9.675 8.96965C9.86389 8.64382 9.95833 8.28729 9.95833 7.90006C9.95833 7.51284 9.86389 7.15631 9.675 6.83048C9.48611 6.50465 9.22875 6.24729 8.90292 6.0584C8.57708 5.86951 8.22056 5.77506 7.83333 5.77506ZM7.83333 4.3584C8.47556 4.3584 9.06819 4.51659 9.61125 4.83298C10.1543 5.14937 10.584 5.57909 10.9004 6.12215C11.2168 6.6652 11.375 7.25784 11.375 7.90006C11.375 8.54229 11.2168 9.13493 10.9004 9.67798C10.584 10.221 10.1543 10.6508 9.61125 10.9671C9.06819 11.2835 8.47556 11.4417 7.83333 11.4417C7.19111 11.4417 6.59847 11.2835 6.05542 10.9671C5.51236 10.6508 5.08264 10.221 4.76625 9.67798C4.44986 9.13493 4.29167 8.54229 4.29167 7.90006C4.29167 7.25784 4.44986 6.6652 4.76625 6.12215C5.08264 5.57909 5.51236 5.14937 6.05542 4.83298C6.59847 4.51659 7.19111 4.3584 7.83333 4.3584ZM12.4375 4.17423C12.4375 4.41979 12.3501 4.62993 12.1754 4.80465C12.0007 4.97937 11.7929 5.06673 11.5521 5.06673C11.3113 5.06673 11.1035 4.97937 10.9288 4.80465C10.754 4.62993 10.6667 4.42215 10.6667 4.18131C10.6667 3.94048 10.754 3.7327 10.9288 3.55798C11.1035 3.38326 11.3113 3.2959 11.5521 3.2959C11.7929 3.2959 12.0007 3.38326 12.1754 3.55798C12.3501 3.7327 12.4375 3.93812 12.4375 4.17423ZM7.83333 2.2334C6.96444 2.2334 6.37417 2.23576 6.0625 2.24048C5.75083 2.2452 5.39194 2.25701 4.98583 2.2759C4.47583 2.29479 4.05083 2.37034 3.71083 2.50256C3.41806 2.6159 3.16069 2.78354 2.93875 3.00548C2.71681 3.22743 2.54917 3.48479 2.43583 3.77757C2.30361 4.11757 2.22806 4.54256 2.20917 5.05256C2.19028 5.43979 2.17847 5.78687 2.17375 6.09381C2.16903 6.40076 2.16667 7.00284 2.16667 7.90006C2.16667 8.76895 2.16903 9.35923 2.17375 9.6709C2.17847 9.98256 2.19028 10.3415 2.20917 10.7476C2.22806 11.2576 2.30361 11.6826 2.43583 12.0226C2.54917 12.3153 2.71681 12.5727 2.93875 12.7946C3.16069 13.0166 3.41806 13.1795 3.71083 13.2834C4.05083 13.4251 4.47583 13.5053 4.98583 13.5242C5.37306 13.5431 5.72014 13.5549 6.02708 13.5596C6.33403 13.5644 6.93611 13.5667 7.83333 13.5667C8.70222 13.5667 9.2925 13.5644 9.60417 13.5596C9.91583 13.5549 10.2747 13.5431 10.6808 13.5242C11.1908 13.5053 11.6158 13.4298 11.9558 13.2976C12.2486 13.1842 12.506 13.0166 12.7279 12.7946C12.9499 12.5727 13.1128 12.3153 13.2167 12.0226C13.3583 11.6826 13.4386 11.2576 13.4575 10.7476C13.4764 10.3603 13.4882 10.0133 13.4929 9.70632C13.4976 9.39937 13.5 8.79729 13.5 7.90006C13.5 7.03118 13.4976 6.4409 13.4929 6.12923C13.4882 5.81756 13.4764 5.45868 13.4575 5.05256C13.4386 4.54256 13.3631 4.11757 13.2308 3.77757C13.1175 3.48479 12.9499 3.22743 12.7279 3.00548C12.506 2.78354 12.2486 2.6159 11.9558 2.50256C11.6158 2.37034 11.1908 2.29479 10.6808 2.2759C10.2936 2.25701 9.94653 2.2452 9.63958 2.24048C9.33264 2.23576 8.73056 2.2334 7.83333 2.2334ZM7.83333 0.816731C8.75889 0.816731 9.39167 0.821453 9.73167 0.830898C10.015 0.830898 10.355 0.840343 10.7517 0.859231C11.4128 0.887565 11.9842 0.996176 12.4658 1.18506C12.9475 1.37395 13.3678 1.64784 13.7267 2.00673C14.0856 2.36562 14.3594 2.7859 14.5483 3.26756C14.7372 3.74923 14.8458 4.32062 14.8742 4.98173C14.8931 5.38784 14.9025 5.72784 14.9025 6.00173C14.9119 6.36062 14.9167 6.99812 14.9167 7.91423C14.9167 8.83034 14.9119 9.4584 14.9025 9.7984C14.9025 10.0817 14.8931 10.4217 14.8742 10.8184C14.8458 11.4795 14.7372 12.0509 14.5483 12.5326C14.3594 13.0142 14.0856 13.4345 13.7267 13.7934C13.3678 14.1523 12.9475 14.4262 12.4658 14.6151C11.9842 14.804 11.4128 14.9126 10.7517 14.9409C10.3456 14.9598 10.0056 14.9692 9.73167 14.9692C9.37278 14.9787 8.73528 14.9834 7.81917 14.9834C6.90306 14.9834 6.275 14.9787 5.935 14.9692C5.65167 14.9692 5.31167 14.9598 4.915 14.9409C4.25389 14.9126 3.6825 14.804 3.20083 14.6151C2.71917 14.4262 2.29889 14.1523 1.94 13.7934C1.58111 13.4345 1.30722 13.0142 1.11833 12.5326C0.929444 12.0509 0.820833 11.4795 0.7925 10.8184C0.773611 10.4123 0.764167 10.0723 0.764167 9.7984C0.754722 9.43951 0.75 8.80201 0.75 7.8859C0.75 6.96979 0.754722 6.34173 0.764167 6.00173C0.764167 5.7184 0.773611 5.3784 0.7925 4.98173C0.820833 4.32062 0.929444 3.74923 1.11833 3.26756C1.30722 2.7859 1.58111 2.36562 1.94 2.00673C2.29889 1.64784 2.71917 1.37395 3.20083 1.18506C3.6825 0.996176 4.25389 0.887565 4.915 0.859231C5.32111 0.840343 5.66111 0.830898 5.935 0.830898C6.29389 0.821453 6.92667 0.816731 7.83333 0.816731Z" fill="black"/>
</svg>
