<svg width="16" height="19" viewBox="0 0 16 19" fill="none" xmlns="http://www.w3.org/2000/svg">
<path d="M7.52941 16.6364L11.6622 12.4868C12.4207 11.7395 12.9339 10.8583 13.2016 9.84319C13.4581 8.85042 13.4581 7.85765 13.2016 6.86489C12.9339 5.84981 12.4235 4.9658 11.6706 4.21286C10.9176 3.45992 10.0336 2.94959 9.01856 2.68188C8.02579 2.42532 7.03303 2.42532 6.04026 2.68188C5.02519 2.94959 4.14118 3.45992 3.38824 4.21286C2.63529 4.9658 2.12497 5.84981 1.85725 6.86489C1.6007 7.85765 1.6007 8.85042 1.85725 9.84319C2.12497 10.8583 2.63808 11.7395 3.3966 12.4868L7.52941 16.6364ZM7.52941 18.9956L2.20863 13.6748C1.23817 12.7155 0.585621 11.5777 0.25098 10.2615C-0.0836601 8.98985 -0.0836601 7.71822 0.25098 6.44659C0.585621 5.13033 1.23538 3.98977 2.20026 3.02489C3.16514 2.06001 4.30571 1.40467 5.62196 1.05887C6.89359 0.735388 8.16523 0.735388 9.43686 1.05887C10.7531 1.40467 11.8937 2.06001 12.8586 3.02489C13.8234 3.98977 14.4732 5.13033 14.8078 6.44659C15.1425 7.71822 15.1425 8.98985 14.8078 10.2615C14.4732 11.5777 13.8207 12.7155 12.8502 13.6748L7.52941 18.9956ZM7.52941 10.0272C7.83059 10.0272 8.10946 9.95195 8.36601 9.80136C8.62257 9.65077 8.82614 9.4472 8.97673 9.19064C9.12732 8.93408 9.20261 8.65521 9.20261 8.35404C9.20261 8.05286 9.12732 7.77399 8.97673 7.51744C8.82614 7.26088 8.62257 7.05731 8.36601 6.90672C8.10946 6.75613 7.83059 6.68083 7.52941 6.68083C7.22824 6.68083 6.94937 6.75613 6.69281 6.90672C6.43625 7.05731 6.23268 7.26088 6.08209 7.51744C5.9315 7.77399 5.85621 8.05286 5.85621 8.35404C5.85621 8.65521 5.9315 8.93408 6.08209 9.19064C6.23268 9.4472 6.43625 9.65077 6.69281 9.80136C6.94937 9.95195 7.22824 10.0272 7.52941 10.0272ZM7.52941 11.7004C6.92706 11.7004 6.36932 11.5499 5.85621 11.2487C5.34309 10.9475 4.93595 10.5404 4.63477 10.0272C4.33359 9.51412 4.18301 8.9536 4.18301 8.34567C4.18301 7.73774 4.33359 7.18001 4.63477 6.67247C4.93595 6.16493 5.34309 5.76057 5.85621 5.4594C6.36932 5.15822 6.92706 5.00763 7.52941 5.00763C8.13176 5.00763 8.6895 5.15822 9.20261 5.4594C9.71573 5.76057 10.1229 6.16493 10.4241 6.67247C10.7252 7.18001 10.8758 7.73774 10.8758 8.34567C10.8758 8.9536 10.7252 9.51412 10.4241 10.0272C10.1229 10.5404 9.71573 10.9475 9.20261 11.2487C8.6895 11.5499 8.13176 11.7004 7.52941 11.7004Z" fill="#F53E32"/>
</svg>
