<svg width="21" height="25" viewBox="0 0 21 25" fill="none" xmlns="http://www.w3.org/2000/svg">
<path d="M17.5686 5.38063C17.8029 5.38063 18.0009 5.4615 18.1626 5.62324C18.3244 5.78499 18.4052 5.98298 18.4052 6.21723V19.6029C18.4052 19.8371 18.3244 20.0351 18.1626 20.1968C18.0009 20.3586 17.8029 20.4395 17.5686 20.4395H2.5098C2.27556 20.4395 2.07756 20.3586 1.91582 20.1968C1.75407 20.0351 1.6732 19.8371 1.6732 19.6029V18.7663H16.732V8.97801L10.0392 15.0015L1.6732 7.47213V6.21723C1.6732 5.98298 1.75407 5.78499 1.91582 5.62324C2.07756 5.4615 2.27556 5.38063 2.5098 5.38063H17.5686ZM6.69281 15.4198V17.093H0V15.4198H6.69281ZM4.18301 11.2368V12.91H0V11.2368H4.18301ZM16.3639 7.05383H3.71451L10.0392 12.7427L16.3639 7.05383Z" fill="#F53E32"/>
</svg>
