<svg width="22" height="22" viewBox="0 0 22 22" fill="none" xmlns="http://www.w3.org/2000/svg">
<g clip-path="url(#clip0_12318_24534)">
<path d="M0.5825 8.49003C0.360833 8.40836 0.25 8.31503 0.25 8.21003C0.25 8.10503 0.366667 8.0117 0.6 7.93003L17.295 2.36503C17.5283 2.28336 17.7033 2.29795 17.82 2.40878C17.9367 2.51961 17.96 2.6917 17.89 2.92503L13.13 19.62C13.06 19.8534 12.9667 19.9729 12.85 19.9788C12.7333 19.9846 12.6283 19.8767 12.535 19.655L9.385 12.585L14.635 5.58503L7.635 10.835L0.5825 8.49003Z" fill="black"/>
</g>
<defs>
<clipPath id="clip0_12318_24534">
<rect width="21.48" height="21" fill="white" transform="matrix(1 0 0 -1 0.25 21.6499)"/>
</clipPath>
</defs>
</svg>
