<svg width="24" height="24" viewBox="0 0 24 24" fill="none" xmlns="http://www.w3.org/2000/svg">
<g clip-path="url(#clip0_12321_20410)">
<path d="M17.5009 1.9165C16.3749 1.93402 15.2734 2.24836 14.3077 2.82778C13.342 3.40719 12.5463 4.23117 12.0009 5.2165C11.4556 4.23117 10.6599 3.40719 9.69417 2.82778C8.72848 2.24836 7.62698 1.93402 6.50094 1.9165C4.70588 1.99449 3.01464 2.77976 1.79672 4.10074C0.578794 5.42171 -0.0668157 7.17103 0.000934853 8.9665C0.000934853 13.5135 4.78693 18.4795 8.80093 21.8465C9.69715 22.5996 10.8303 23.0125 12.0009 23.0125C13.1716 23.0125 14.3047 22.5996 15.2009 21.8465C19.2149 18.4795 24.0009 13.5135 24.0009 8.9665C24.0687 7.17103 23.4231 5.42171 22.2052 4.10074C20.9872 2.77976 19.296 1.99449 17.5009 1.9165Z" fill="white"/>
</g>
<defs>
<clipPath id="clip0_12321_20410">
<rect width="24" height="24" fill="white"/>
</clipPath>
</defs>
</svg>
