<svg width="24" height="23" viewBox="0 0 24 23" fill="none" xmlns="http://www.w3.org/2000/svg">
<path d="M17.2504 0.85083C16.2247 0.860753 15.2156 1.11077 14.3039 1.58085C13.3922 2.05093 12.6033 2.728 12.0004 3.55783C11.3975 2.728 10.6085 2.05093 9.69687 1.58085C8.78518 1.11077 7.77608 0.860753 6.75039 0.85083C4.89216 0.925037 3.13891 1.73201 1.874 3.09529C0.6091 4.45858 -0.0645385 6.26725 0.000386923 8.12583C0.000386923 12.6778 4.67439 17.5508 8.60039 20.8378C9.55372 21.6394 10.7593 22.0789 12.0049 22.0789C13.2504 22.0789 14.4561 21.6394 15.4094 20.8378C19.3314 17.5508 24.0094 12.6778 24.0094 8.12583C24.0743 6.26575 23.3994 4.45576 22.1326 3.09222C20.8657 1.72868 19.1102 0.922718 17.2504 0.85083ZM13.4774 18.5388C13.0638 18.887 12.5405 19.078 11.9999 19.078C11.4592 19.078 10.936 18.887 10.5224 18.5388C5.74239 14.5308 3.00039 10.7358 3.00039 8.12583C2.93663 7.06305 3.29467 6.01801 3.99677 5.21761C4.69887 4.41722 5.68835 3.92608 6.75039 3.85083C7.81242 3.92608 8.8019 4.41722 9.50401 5.21761C10.2061 6.01801 10.5641 7.06305 10.5004 8.12583C10.5004 8.52366 10.6584 8.90519 10.9397 9.18649C11.221 9.46779 11.6026 9.62583 12.0004 9.62583C12.3982 9.62583 12.7797 9.46779 13.061 9.18649C13.3424 8.90519 13.5004 8.52366 13.5004 8.12583C13.4366 7.06305 13.7947 6.01801 14.4968 5.21761C15.1989 4.41722 16.1884 3.92608 17.2504 3.85083C18.3124 3.92608 19.3019 4.41722 20.004 5.21761C20.7061 6.01801 21.0641 7.06305 21.0004 8.12583C21.0004 10.7358 18.2584 14.5308 13.4774 18.5388Z" fill="white"/>
</svg>
